<svg width="837" height="903" viewBox="0 0 837 903" fill="none" xmlns="http://www.w3.org/2000/svg">
<g opacity="0.08">
<path d="M-641.239 225.998L-642.756 221.419C-554.624 258.403 -459.825 375.744 -399.803 522.391C-383.592 562.114 -359.676 583.28 -330.567 583.672C-309.127 583.936 -285.871 573.183 -263.281 552.361C-240.806 531.578 -221.062 502.934 -206.23 469.439C-200.558 456.636 -192.936 441.662 -184.739 425.736C-146.821 351.82 -95.0742 250.585 -152.609 195.082C-184.138 164.752 -222.948 169.988 -263.934 175.564C-305.531 181.215 -348.577 187.092 -381.889 151.763C-391.901 141.107 -400.84 127.936 -408.706 112.25L-401.719 109.936C-394.309 124.63 -385.941 136.846 -376.537 146.815C-345.777 179.432 -306.356 174.12 -264.759 168.469C-223.773 162.894 -181.452 157.129 -147.448 189.943C-102.593 233.26 -118.866 300.386 -146.156 363.032C-164.033 411.509 -190.644 459.322 -204.408 492.59C-251.641 607.064 -358.445 672.934 -412.048 559.474C-464.93 447.808 -539.94 354.905 -614.807 305.397L-641.239 225.998Z" fill="#17FFE5"/>
<path d="M465.763 -165.929C472.153 -153.163 480.909 -140.544 490.159 -127.199C505.994 -104.332 522.134 -80.9307 527.932 -54.993C537.513 -33.3616 543.086 -10.7844 538.662 13.0697C533.354 41.5419 503.796 60.1114 476.789 57.9918C392.104 51.3198 351.109 -59.3802 261.244 -46.7815L261.129 -46.7435C222.555 -44.6497 188.741 -11.313 169.542 19.344C137.11 71.4308 122.718 151.505 135.477 215.334C136.503 218.047 137.452 220.913 138.478 223.626C147.292 247.928 156.979 274.867 164.071 302.411C179.032 348.338 190.364 397.502 179.881 441.426C163.446 510.729 66.9785 524.879 65.2004 465.426C62.4182 463.55 59.7891 461.368 57.6946 458.881C49.2781 449.203 41.9057 430.402 55.4252 396.411C70.0174 359.521 71.9719 328.98 61.8296 300.284C52.8266 275.026 34.2083 250.665 1.59617 221.271C-27.3586 195.246 -64.5986 173.365 -104.126 150.333C-164.998 114.656 -228.081 77.6753 -260.54 23.0443C-280.403 -10.4453 -292.967 -52.2048 -297.775 -101.24C-300.142 -125.262 -300.712 -151.15 -299.373 -178.562L-292.045 -180.99C-293.538 -152.891 -293.044 -126.468 -290.64 -101.951C-285.945 -54.0225 -273.685 -13.18 -254.392 19.3538C-222.846 72.3793 -160.678 108.899 -100.454 144.155C-60.6982 167.493 -23.0387 189.49 6.44945 215.975C40.0904 246.172 59.2795 271.489 68.6623 297.893C79.5266 328.385 77.4553 360.491 62.1737 399.137C52.5605 423.438 52.9892 442.377 63.2338 454.121C72.4122 464.564 88.7352 468.188 107.055 463.645C127.855 458.535 154.817 440.571 162.88 406.988C176.55 349.669 151.667 281.079 131.76 225.979C129.747 220.286 127.657 214.745 125.72 209.281C102.206 143.291 113.876 46.1812 152.886 -16.3533C172.468 -47.7731 207.505 -82.0235 247.338 -84.1529L247.452 -84.1908C287.399 -85.9763 324.589 -56.1914 360.483 -27.2493C386.432 -6.46116 410.856 13.1783 435.566 21.0202C459.17 28.5924 480.803 27.5314 496.383 18.172C509.519 10.2583 517.971 -2.97265 521.432 -21.2925C528.587 -59.1534 505.975 -91.7325 484.239 -123.203C474.799 -136.739 465.967 -149.587 459.311 -162.774C440.256 -200.729 429.152 -249.205 427.97 -299.188C426.936 -346.421 435.322 -391.304 451.744 -427.275L461.248 -430.423C443.415 -394.494 434.226 -348.2 435.295 -299.325C436.289 -251.061 447.431 -202.47 465.763 -165.929Z" fill="#17FFE5"/>
<path d="M-595.585 491.285C-542.171 543.138 -491.691 592.275 -448.197 600.371C-421.376 605.344 -401.102 601.298 -386.156 588.081C-346.054 552.164 -353.203 454.215 -359.457 367.793C-364.262 302.633 -368.281 246.368 -353.842 218.571C-336.53 185.245 -312.489 166.473 -282.446 162.75C-196.515 151.955 -87.1112 265.742 -55.6124 300.952C-5.60258 356.73 5.14853 404.917 -16.9977 473.156C-19.7612 481.701 -23.3274 490.892 -27.0854 500.656C-43.5367 543.487 -63.862 596.883 -33.6663 635.068C-10.02 664.996 -6.04327 702.712 -22.2247 744.055C-35.8365 778.571 -63.3047 814.245 -97.6659 841.776C-110.126 851.753 -123.387 861.232 -136.227 870.444C-183.921 904.554 -228.901 936.874 -244.392 997.188C-249.389 1016.64 -253.246 1039.15 -255.389 1063.01L-262.836 1065.47C-260.728 1039.98 -256.715 1016.02 -251.373 995.304C-235.19 932.473 -187 897.945 -140.377 864.444C-127.651 855.27 -114.466 845.943 -102.121 836.004C-68.6388 809.273 -41.9361 774.743 -28.8605 741.295C-18.2392 714.254 -11.4115 674.612 -39.2083 639.447C-71.9934 598.051 -50.8247 542.596 -33.6833 498.01C-30.0018 488.399 -26.5502 479.245 -23.7487 470.816C-2.52388 405.551 -12.8969 359.274 -60.888 305.751C-78.8276 285.757 -115.397 247.522 -158.924 215.916C-206.912 181.21 -248.141 165.753 -281.352 169.889C-308.915 173.426 -331.121 190.827 -347.283 221.865C-360.803 247.832 -356.558 305.93 -352.129 367.272C-345.687 455.412 -338.427 555.232 -381.204 593.434C-397.68 608.174 -420.55 612.826 -449.393 607.506C-495.062 598.987 -546.266 549.199 -600.48 496.466C-648.864 449.432 -698.506 401.288 -745.3 381.698L-748.261 372.761C-698.526 391.25 -646.446 441.764 -595.585 491.285Z" fill="#17FFE5"/>
<path d="M14.86 -254.15C38.0332 -226.722 51.9221 -199.462 54.0898 -177.44C57.1678 -146.09 40.0441 -122.599 23.3875 -99.9523C17.485 -91.7697 11.2432 -83.223 6.18566 -74.5733C-7.01298 -51.9457 -10.1769 -29.0107 -13.5607 -4.68044C-17.0947 20.67 -20.6622 46.8293 -36.5743 72.3697L-36.9718 72.8394C-46.3966 83.9013 -55.7683 92.3724 -64.7588 98.1585C-99.2039 129.036 -145.355 145.168 -174.006 110.437C-210.061 66.6483 -159.68 -12.5104 -156.185 -61.7385C-151.366 -128.576 -204.307 -175.494 -207.141 -241.46C-209.185 -288.649 -170.969 -332.334 -150.568 -335.811C-148.119 -336.25 -145.517 -336.467 -142.974 -336.578C-141.497 -337.003 -140.08 -337.322 -138.556 -337.583C-117.664 -341.202 -91.7798 -334.891 -63.5792 -319.301C-35.8483 -304.109 -7.3376 -280.349 14.86 -254.15ZM-20.8072 -5.79062C-17.493 -29.7457 -14.0397 -54.4512 -0.140397 -78.3463C5.09235 -87.3129 11.3925 -95.9652 17.5174 -104.301C34.01 -126.9 49.5907 -148.349 46.8235 -176.769C42.7269 -218.749 -9.46115 -281.247 -67.0242 -313.069C-93.7461 -327.842 -118.023 -333.816 -137.229 -330.506C-157.794 -326.981 -167.265 -304.362 -165.55 -263.561C-164.342 -235.313 -158.645 -207.204 -153.02 -179.962C-145.665 -143.627 -137.979 -106.144 -140.712 -67.5263C-141.726 -53.4695 -144.697 -39.1155 -147.645 -25.3008C-155.225 10.3617 -162.294 44.1008 -137.45 74.2449C-129.682 83.6415 -121.708 90.6697 -113.998 94.9322C-91.8178 107.194 -68.3919 98.4942 -42.4555 68.291C-27.6777 44.0541 -24.1437 18.7037 -20.8072 -5.79062Z" fill="#17FFE5"/>
</g>
</svg>
