<svg width="855" height="903" viewBox="0 0 855 903" fill="none" xmlns="http://www.w3.org/2000/svg">
<g opacity="0.08">
<path d="M1151.42 -471.477L1156.16 -472.373C1107.8 -389.933 978.909 -311.557 825.59 -271.541C784.065 -260.749 759.911 -239.855 755.657 -211.056C752.548 -189.84 760.118 -165.362 777.755 -140.208C795.37 -115.172 821.138 -91.7991 852.366 -72.6504C864.303 -65.3281 878.132 -55.7849 892.828 -45.5461C961.054 1.85284 1054.52 66.5849 1117.17 16.9302C1151.42 -10.291 1151.39 -49.4532 1151.3 -90.8166C1151.23 -132.795 1151.12 -176.241 1190.56 -204.566C1202.45 -213.074 1216.69 -220.185 1233.28 -225.898L1234.65 -218.666C1219.1 -213.273 1205.88 -206.601 1194.75 -198.605C1158.34 -172.448 1158.37 -132.671 1158.44 -90.6922C1158.53 -49.3289 1158.62 -6.61663 1121.58 22.7278C1072.69 61.4332 1008.32 36.3898 949.853 1.02221C904.18 -23.1332 860.324 -55.8587 829.179 -73.9181C721.991 -135.935 670.888 -250.541 790.461 -288.602C908.161 -326.186 1010.2 -388.194 1069.21 -455.824L1151.42 -471.477Z" fill="#17FFE5"/>
<path d="M1182.08 859.059C1168.58 863.697 1154.91 870.699 1140.46 878.095C1115.69 890.754 1090.35 903.643 1063.87 905.945C1041.16 912.568 1018.04 915.094 994.99 907.542C967.475 898.499 952.995 866.737 958.682 840.25C976.541 757.202 1091.7 731.271 1091.15 640.528L1091.13 640.41C1094.18 601.9 1065.63 563.957 1037.79 540.857C990.471 501.795 913.017 476.898 848.059 481.067C845.234 481.723 842.268 482.284 839.442 482.94C814.185 488.449 786.198 494.473 757.956 497.844C710.45 506.573 660.216 511.276 618.073 495.053C551.566 469.56 550.352 372.068 609.515 378.201C611.744 375.693 614.256 373.376 616.998 371.631C627.708 364.574 647.322 359.764 679.217 377.677C713.843 397.039 743.854 403.032 773.643 396.791C799.872 391.222 826.49 376.003 859.954 347.583C889.594 322.341 916.227 288.337 944.304 252.218C987.749 196.623 1032.78 139.01 1091.24 114.093C1127.07 98.8533 1170.13 91.9464 1219.37 93.6928C1243.49 94.5372 1269.22 97.4095 1296.21 102.377L1297.65 109.963C1270 104.752 1243.74 101.732 1219.12 100.859C1170.99 99.1481 1128.89 105.876 1094.08 120.677C1037.33 144.902 992.88 201.669 949.939 256.678C921.529 292.983 894.725 327.387 864.559 353.097C830.162 382.43 802.521 398.087 775.105 403.88C743.44 410.599 711.893 404.282 675.619 384.004C652.81 371.249 633.982 369.159 620.982 377.753C609.412 385.463 603.652 401.16 605.722 419.921C608.025 441.215 622.249 470.325 654.463 482.776C709.46 503.937 780.746 488.382 838.002 475.969C843.913 474.73 849.682 473.394 855.355 472.2C923.883 457.657 1018.58 482.121 1075.38 529.09C1103.92 552.671 1133.22 591.946 1130.04 631.709L1130.06 631.827C1126.53 671.657 1092.07 704.562 1058.61 736.295C1034.56 759.253 1011.85 780.853 1000.8 804.303C990.161 826.692 988.34 848.274 995.547 864.959C1001.65 879.03 1013.64 889.164 1031.34 895.028C1067.91 907.147 1103.2 889.062 1137.28 871.697C1151.95 864.138 1165.86 857.091 1179.81 852.245C1219.96 838.399 1269.48 833.831 1319.18 839.297C1366.13 844.545 1409.51 858.817 1442.98 879.87L1444.84 889.709C1411.59 867.262 1366.93 852.006 1318.34 846.576C1270.38 841.151 1220.74 845.742 1182.08 859.059Z" fill="#17FFE5"/>
<path d="M658.391 -268.774C599.904 -222.719 544.498 -179.212 530.698 -137.178C522.207 -111.254 523.526 -90.6231 534.64 -74.0535C564.914 -29.5375 662.945 -23.6157 749.431 -18.3377C814.652 -14.4464 870.953 -10.9579 896.586 7.0448C927.318 28.6289 942.731 54.9493 942.431 85.2208C941.719 171.824 814.411 265.149 775.33 291.693C713.405 333.852 664.218 338.109 599.523 307.097C591.422 303.223 582.785 298.468 573.607 293.446C533.34 271.453 483.116 244.217 441.26 269.074C408.456 288.537 370.546 287.469 331.718 265.941C299.315 247.866 267.605 215.904 244.881 178.191C236.648 164.516 229.013 150.114 221.588 136.164C194.114 84.3632 168.053 35.4893 110.331 12.1261C91.7111 4.58953 69.9115 -2.22339 46.5569 -7.51438L45.1006 -15.2228C70.0866 -9.74876 93.3028 -2.5894 113.125 5.45702C173.25 29.8401 201.073 82.1886 228.085 132.848C235.489 146.68 242.982 160.985 251.193 174.542C273.241 211.277 303.919 242.329 335.335 259.73C360.725 273.849 399.11 285.88 437.655 263C483.038 236.002 535.191 264.348 577.105 287.258C586.143 292.184 594.757 296.82 602.74 300.716C664.607 330.42 711.853 326.285 771.274 285.826C793.474 270.701 836.226 239.533 873.333 200.588C914.104 157.635 934.9 118.824 935.21 85.3568C935.365 57.5691 921.067 33.249 892.45 13.1078C868.509 -3.74076 810.362 -7.24892 748.974 -11.0046C660.76 -16.3247 560.86 -22.3848 528.677 -69.8563C516.256 -88.1442 514.682 -111.429 523.785 -139.311C538.294 -183.444 594.441 -227.582 653.906 -274.313C706.949 -316.023 761.259 -358.832 786.89 -402.61L796.14 -404.357C771.211 -357.519 714.227 -312.608 658.391 -268.774Z" fill="#17FFE5"/>
<path d="M515.875 -284.983C480.931 -258.614 447.943 -233.596 435.03 -206.354C414.826 -163.738 412.259 -118.805 427.866 -79.7622C443.748 -39.9116 477.617 -8.24746 523.05 9.19919C541.323 16.1836 575.067 19.8769 610.939 23.7819C682.684 31.592 763.959 40.4256 781.819 79.0431C787.649 91.6934 788.369 103.958 783.912 115.483C772.05 146.332 725.767 166.003 688.689 181.726C672.659 188.561 658.77 194.377 650.613 199.97C606.419 230.051 571.23 233.016 525.043 210.923C518.142 207.561 511.271 203.703 503.858 199.578C484.75 188.822 465.055 177.563 444.7 177.111C434.711 176.911 425.914 180.415 416.546 184.149C405.347 188.598 393.696 193.255 380.442 190.725C327.752 181.034 296.799 116.036 271.936 63.7615C265.014 49.2303 258.486 35.4841 252.258 24.6279C211.636 -46.0332 156.143 -142.739 69.9414 -177.654C53.1817 -184.433 32.9084 -190.303 11.2656 -194.318L9.83226 -201.905C33.0842 -197.825 54.8929 -191.632 72.7359 -184.321C161.201 -148.483 217.555 -50.4666 258.594 21.0981C265.007 32.2875 271.558 46.1522 278.621 60.7796C302.837 111.58 332.838 174.793 381.961 183.807C393.279 185.844 403.336 181.856 414.083 177.616C423.688 173.837 433.746 169.849 445.084 170.04C467.286 170.512 487.781 182.11 507.594 193.347C514.748 197.398 521.619 201.256 528.238 204.426C571.74 225.307 604.845 222.368 646.653 193.965C655.358 188.023 669.58 182.021 685.944 175C721.881 159.739 766.452 140.759 777.265 112.809C781.064 103.006 780.413 93.0604 775.372 81.9802C759.177 46.9771 676.649 38.0119 610.199 30.9204C572.317 26.7811 539.589 23.2643 520.515 15.9401C473.197 -2.37831 437.851 -35.3596 421.232 -77.1584C404.889 -118.15 407.454 -165.046 428.531 -209.546C442.242 -238.412 475.874 -263.92 511.581 -290.803C543.088 -314.558 575.217 -338.923 593.668 -366.106L603.632 -367.988C585.214 -337.374 550.174 -310.863 515.875 -284.983Z" fill="#17FFE5"/>
<path d="M388.421 -274.023L386.132 -269.905C357.826 -217.76 325.783 -158.767 356.699 -100.982C364.305 -86.6973 375.043 -73.3723 385.313 -60.5732C407.954 -32.3009 431.389 -3.07313 424.352 38.9125C420.09 64.4065 408.838 73.042 400.059 75.9289C385.943 80.4383 368.378 73.1933 350.805 55.5095C324.153 28.7321 307.848 -6.2646 292.124 -40.1425C284.492 -56.5108 276.629 -73.4498 267.828 -88.8603C232.181 -150.91 185.133 -233.038 115.825 -275.831L126.132 -277.778C193.221 -233.092 239.11 -153.202 274.014 -92.4856C283.001 -76.7416 291.004 -59.7064 298.658 -43.2195C314.153 -9.91221 330.204 24.3953 355.967 50.3582C371.388 65.7462 386.663 72.5639 397.886 68.9698C407.612 65.9039 414.276 55.0644 417.248 37.6754C423.778 -1.144 402.303 -27.794 379.662 -56.0663C369.206 -69.1988 358.305 -82.7387 350.35 -97.572L350.327 -97.6906C317.651 -158.95 350.705 -219.731 379.808 -273.501L382.098 -277.618C382.821 -278.983 383.929 -280.912 385.207 -283.242C394.992 -300.935 403.366 -317.011 410.208 -331.446L419.093 -333.125C410.553 -314.684 400.592 -295.975 391.53 -279.646C390.134 -277.294 389.145 -275.388 388.421 -274.023Z" fill="#17FFE5"/>
<path d="M913.104 781.917C882.842 801.242 853.979 811.388 831.865 810.612C800.384 809.5 779.374 789.408 759.14 769.891C751.814 762.955 744.172 755.633 736.271 749.472C715.596 733.385 693.285 727.203 669.619 720.619C644.963 713.749 619.509 706.739 596.308 687.577L595.895 687.12C586.183 676.31 579.031 665.896 574.49 656.217C548.46 617.976 538.6 570.092 576.828 546.307C625.017 516.387 696.784 576.833 745.112 586.835C810.718 600.487 864.251 554.246 930.009 560.197C977.051 564.437 1015.27 608.117 1016.01 628.799C1016.12 631.284 1015.99 633.892 1015.76 636.427C1015.99 637.947 1016.12 639.394 1016.17 640.939C1016.98 662.127 1007.29 686.944 988.095 712.824C969.355 738.292 942.02 763.395 913.104 781.917ZM671.682 713.584C694.985 720.05 719.013 726.753 740.85 743.703C749.043 750.08 756.782 757.473 764.23 764.651C784.439 783.998 803.628 802.29 832.164 803.321C874.316 804.836 943.192 761.409 982.377 708.582C1000.57 684.059 1009.71 660.79 1008.98 641.315C1008.22 620.464 987.058 608.073 946.391 604.354C918.233 601.8 889.616 603.714 861.868 605.671C824.879 608.136 786.707 610.776 748.794 602.939C734.996 600.068 721.164 595.217 707.863 590.46C673.523 578.211 641.021 566.725 607.845 587.345C597.5 593.796 589.475 600.766 584.227 607.842C569.128 628.198 574.64 652.571 601.131 682.289C623.191 700.155 647.848 707.024 671.682 713.584Z" fill="#17FFE5"/>
</g>
</svg>
