<svg width="194" height="27" viewBox="0 0 194 27" fill="none" xmlns="http://www.w3.org/2000/svg">
<path fill-rule="evenodd" clip-rule="evenodd" d="M23.2059 7.58815C25.3014 7.58815 27 5.88948 27 3.79408C27 1.69867 25.3014 0 23.2059 0C21.1105 0 19.4119 1.69867 19.4119 3.79408C19.4119 5.88948 21.1105 7.58815 23.2059 7.58815Z" fill="white"/>
<path fill-rule="evenodd" clip-rule="evenodd" d="M23.2056 17.1171C25.301 17.1171 26.9997 15.4185 26.9997 13.3232C26.9997 11.2278 25.301 9.52921 23.2056 9.52921C21.1102 9.52921 19.4116 11.2278 19.4116 13.3232C19.4116 15.4185 21.1102 17.1171 23.2056 17.1171Z" fill="white"/>
<path fill-rule="evenodd" clip-rule="evenodd" d="M23.2056 26.9996C25.301 26.9996 26.9997 25.3009 26.9997 23.2055C26.9997 21.1101 25.301 19.4114 23.2056 19.4114C21.1102 19.4114 19.4116 21.1101 19.4116 23.2055C19.4116 25.3009 21.1102 26.9996 23.2056 26.9996Z" fill="white"/>
<path fill-rule="evenodd" clip-rule="evenodd" d="M13.3237 17.1172C15.4191 17.1172 17.1177 15.4186 17.1177 13.3232C17.1177 11.2279 15.4191 9.52927 13.3237 9.52927C11.2284 9.52927 9.52975 11.2279 9.52975 13.3232C9.52975 15.4186 11.2284 17.1172 13.3237 17.1172Z" fill="white"/>
<path fill-rule="evenodd" clip-rule="evenodd" d="M13.3236 26.9996C15.4189 26.9996 17.1175 25.301 17.1175 23.2056C17.1175 21.1102 15.4189 19.4115 13.3236 19.4115C11.2282 19.4115 9.5296 21.1102 9.5296 23.2056C9.5296 25.301 11.2282 26.9996 13.3236 26.9996Z" fill="white"/>
<path fill-rule="evenodd" clip-rule="evenodd" d="M3.79398 26.9996C5.88939 26.9996 7.58806 25.3009 7.58806 23.2055C7.58806 21.1101 5.88939 19.4114 3.79398 19.4114C1.69857 19.4114 -9.15527e-05 21.1101 -9.15527e-05 23.2055C-9.15527e-05 25.3009 1.69857 26.9996 3.79398 26.9996Z" fill="white"/>
<mask id="path-7-outside-1_1_432" maskUnits="userSpaceOnUse" x="38" y="0.515808" width="156" height="26" fill="black">
<rect fill="white" x="38" y="0.515808" width="156" height="26"/>
<path d="M69.752 2.95581L63.16 25.1958H59.032L54.36 8.36381L49.4 25.1958L45.304 25.2278L39 2.95581H42.872L47.48 21.0678L52.472 2.95581H56.568L61.208 20.9718L65.848 2.95581H69.752Z"/>
<path d="M82.0687 7.27581C83.7541 7.27581 85.2794 7.64914 86.6447 8.39581C88.0101 9.14247 89.0874 10.2091 89.8767 11.5958C90.6661 12.9825 91.0607 14.5718 91.0607 16.3638C91.0607 18.1558 90.6554 19.7451 89.8447 21.1318C89.0341 22.5185 87.9248 23.5958 86.5168 24.3638C85.1301 25.1105 83.5941 25.4838 81.9087 25.4838C80.2447 25.4838 78.7407 25.1105 77.3967 24.3638C76.0527 23.5958 74.9967 22.5291 74.2287 21.1638C73.4607 19.7771 73.0767 18.1771 73.0767 16.3638C73.0767 14.5718 73.4714 12.9825 74.2607 11.5958C75.0501 10.2091 76.1274 9.14247 77.4927 8.39581C78.8581 7.64914 80.3834 7.27581 82.0687 7.27581ZM82.0047 10.3478C81.0661 10.3478 80.2021 10.5825 79.4128 11.0518C78.6234 11.4998 77.9834 12.1825 77.4927 13.0998C77.0234 13.9958 76.7887 15.0838 76.7887 16.3638C76.7887 17.6438 77.0127 18.7425 77.4607 19.6598C77.9301 20.5771 78.5487 21.2705 79.3167 21.7398C80.1061 22.1878 80.9701 22.4118 81.9087 22.4118C82.8474 22.4118 83.7221 22.1771 84.5327 21.7078C85.3647 21.2385 86.0367 20.5558 86.5487 19.6598C87.0607 18.7425 87.3167 17.6438 87.3167 16.3638C87.3167 15.0838 87.0714 13.9958 86.5807 13.0998C86.0901 12.1825 85.4394 11.4998 84.6287 11.0518C83.8181 10.5825 82.9434 10.3478 82.0047 10.3478Z"/>
<path d="M103.975 7.27581C105.66 7.27581 107.186 7.64914 108.551 8.39581C109.916 9.14247 110.994 10.2091 111.783 11.5958C112.572 12.9825 112.967 14.5718 112.967 16.3638C112.967 18.1558 112.562 19.7451 111.751 21.1318C110.94 22.5185 109.831 23.5958 108.423 24.3638C107.036 25.1105 105.5 25.4838 103.815 25.4838C102.151 25.4838 100.647 25.1105 99.303 24.3638C97.959 23.5958 96.903 22.5291 96.135 21.1638C95.367 19.7771 94.983 18.1771 94.983 16.3638C94.983 14.5718 95.3777 12.9825 96.167 11.5958C96.9563 10.2091 98.0337 9.14247 99.399 8.39581C100.764 7.64914 102.29 7.27581 103.975 7.27581ZM103.911 10.3478C102.972 10.3478 102.108 10.5825 101.319 11.0518C100.53 11.4998 99.8897 12.1825 99.399 13.0998C98.9297 13.9958 98.695 15.0838 98.695 16.3638C98.695 17.6438 98.919 18.7425 99.367 19.6598C99.8363 20.5771 100.455 21.2705 101.223 21.7398C102.012 22.1878 102.876 22.4118 103.815 22.4118C104.754 22.4118 105.628 22.1771 106.439 21.7078C107.271 21.2385 107.943 20.5558 108.455 19.6598C108.967 18.7425 109.223 17.6438 109.223 16.3638C109.223 15.0838 108.978 13.9958 108.487 13.0998C107.996 12.1825 107.346 11.4998 106.535 11.0518C105.724 10.5825 104.85 10.3478 103.911 10.3478Z"/>
<path d="M139.737 7.27581C141.06 7.27581 142.244 7.56381 143.289 8.13981C144.335 8.71581 145.156 9.56914 145.753 10.6998C146.372 11.8305 146.681 13.1958 146.681 14.7958V25.1958H143.033V15.3398C143.033 13.7611 142.639 12.5558 141.849 11.7238C141.06 10.8705 139.983 10.4438 138.617 10.4438C137.252 10.4438 136.175 10.8705 135.385 11.7238C134.596 12.5558 134.201 13.7611 134.201 15.3398V25.1958H130.585V15.3398C130.585 13.7611 130.191 12.5558 129.401 11.7238C128.612 10.8705 127.535 10.4438 126.169 10.4438C124.804 10.4438 123.716 10.8705 122.905 11.7238C122.116 12.5558 121.721 13.7611 121.721 15.3398V25.1958H118.073V7.56381H121.721V10.3478C122.297 9.34514 123.065 8.58781 124.025 8.07581C125.007 7.54247 126.116 7.27581 127.353 7.27581C128.719 7.27581 129.935 7.59581 131.001 8.23581C132.068 8.87581 132.879 9.80381 133.433 11.0198C134.052 9.84647 134.905 8.92914 135.993 8.26781C137.103 7.60647 138.351 7.27581 139.737 7.27581Z"/>
<path d="M162.615 7.27581C164.151 7.27581 165.549 7.65981 166.807 8.42781C168.087 9.17447 169.09 10.2305 169.815 11.5958C170.541 12.9611 170.903 14.5291 170.903 16.2998C170.903 18.0705 170.541 19.6598 169.815 21.0678C169.09 22.4545 168.087 23.5425 166.807 24.3318C165.549 25.0998 164.151 25.4838 162.615 25.4838C161.229 25.4838 160.013 25.1638 158.967 24.5238C157.922 23.8625 157.09 22.9878 156.471 21.8998V25.1958H152.823V1.51581H156.471V10.6998C157.069 9.67581 157.89 8.85447 158.935 8.23581C160.002 7.59581 161.229 7.27581 162.615 7.27581ZM161.815 10.4438C160.898 10.4438 160.023 10.6785 159.191 11.1478C158.381 11.6171 157.719 12.2998 157.207 13.1958C156.717 14.0918 156.471 15.1478 156.471 16.3638C156.471 17.5798 156.717 18.6465 157.207 19.5638C157.719 20.4598 158.381 21.1425 159.191 21.6118C160.023 22.0811 160.898 22.3158 161.815 22.3158C162.754 22.3158 163.629 22.0811 164.439 21.6118C165.271 21.1211 165.933 20.4171 166.423 19.4998C166.935 18.5825 167.191 17.5158 167.191 16.2998C167.191 15.0838 166.935 14.0385 166.423 13.1638C165.933 12.2678 165.271 11.5958 164.439 11.1478C163.629 10.6785 162.754 10.4438 161.815 10.4438Z"/>
<path d="M183.819 7.27581C185.504 7.27581 187.029 7.64914 188.395 8.39581C189.76 9.14247 190.837 10.2091 191.627 11.5958C192.416 12.9825 192.811 14.5718 192.811 16.3638C192.811 18.1558 192.405 19.7451 191.595 21.1318C190.784 22.5185 189.675 23.5958 188.267 24.3638C186.88 25.1105 185.344 25.4838 183.659 25.4838C181.995 25.4838 180.491 25.1105 179.147 24.3638C177.803 23.5958 176.747 22.5291 175.979 21.1638C175.211 19.7771 174.827 18.1771 174.827 16.3638C174.827 14.5718 175.221 12.9825 176.011 11.5958C176.8 10.2091 177.877 9.14247 179.243 8.39581C180.608 7.64914 182.133 7.27581 183.819 7.27581ZM183.755 10.3478C182.816 10.3478 181.952 10.5825 181.163 11.0518C180.373 11.4998 179.733 12.1825 179.243 13.0998C178.773 13.9958 178.539 15.0838 178.539 16.3638C178.539 17.6438 178.763 18.7425 179.211 19.6598C179.68 20.5771 180.299 21.2705 181.067 21.7398C181.856 22.1878 182.72 22.4118 183.659 22.4118C184.597 22.4118 185.472 22.1771 186.283 21.7078C187.115 21.2385 187.787 20.5558 188.299 19.6598C188.811 18.7425 189.067 17.6438 189.067 16.3638C189.067 15.0838 188.821 13.9958 188.331 13.0998C187.84 12.1825 187.189 11.4998 186.379 11.0518C185.568 10.5825 184.693 10.3478 183.755 10.3478Z"/>
</mask>
<path d="M69.752 2.95581L63.16 25.1958H59.032L54.36 8.36381L49.4 25.1958L45.304 25.2278L39 2.95581H42.872L47.48 21.0678L52.472 2.95581H56.568L61.208 20.9718L65.848 2.95581H69.752Z" fill="white"/>
<path d="M82.0687 7.27581C83.7541 7.27581 85.2794 7.64914 86.6447 8.39581C88.0101 9.14247 89.0874 10.2091 89.8767 11.5958C90.6661 12.9825 91.0607 14.5718 91.0607 16.3638C91.0607 18.1558 90.6554 19.7451 89.8447 21.1318C89.0341 22.5185 87.9248 23.5958 86.5168 24.3638C85.1301 25.1105 83.5941 25.4838 81.9087 25.4838C80.2447 25.4838 78.7407 25.1105 77.3967 24.3638C76.0527 23.5958 74.9967 22.5291 74.2287 21.1638C73.4607 19.7771 73.0767 18.1771 73.0767 16.3638C73.0767 14.5718 73.4714 12.9825 74.2607 11.5958C75.0501 10.2091 76.1274 9.14247 77.4927 8.39581C78.8581 7.64914 80.3834 7.27581 82.0687 7.27581ZM82.0047 10.3478C81.0661 10.3478 80.2021 10.5825 79.4128 11.0518C78.6234 11.4998 77.9834 12.1825 77.4927 13.0998C77.0234 13.9958 76.7887 15.0838 76.7887 16.3638C76.7887 17.6438 77.0127 18.7425 77.4607 19.6598C77.9301 20.5771 78.5487 21.2705 79.3167 21.7398C80.1061 22.1878 80.9701 22.4118 81.9087 22.4118C82.8474 22.4118 83.7221 22.1771 84.5327 21.7078C85.3647 21.2385 86.0367 20.5558 86.5487 19.6598C87.0607 18.7425 87.3167 17.6438 87.3167 16.3638C87.3167 15.0838 87.0714 13.9958 86.5807 13.0998C86.0901 12.1825 85.4394 11.4998 84.6287 11.0518C83.8181 10.5825 82.9434 10.3478 82.0047 10.3478Z" fill="white"/>
<path d="M103.975 7.27581C105.66 7.27581 107.186 7.64914 108.551 8.39581C109.916 9.14247 110.994 10.2091 111.783 11.5958C112.572 12.9825 112.967 14.5718 112.967 16.3638C112.967 18.1558 112.562 19.7451 111.751 21.1318C110.94 22.5185 109.831 23.5958 108.423 24.3638C107.036 25.1105 105.5 25.4838 103.815 25.4838C102.151 25.4838 100.647 25.1105 99.303 24.3638C97.959 23.5958 96.903 22.5291 96.135 21.1638C95.367 19.7771 94.983 18.1771 94.983 16.3638C94.983 14.5718 95.3777 12.9825 96.167 11.5958C96.9563 10.2091 98.0337 9.14247 99.399 8.39581C100.764 7.64914 102.29 7.27581 103.975 7.27581ZM103.911 10.3478C102.972 10.3478 102.108 10.5825 101.319 11.0518C100.53 11.4998 99.8897 12.1825 99.399 13.0998C98.9297 13.9958 98.695 15.0838 98.695 16.3638C98.695 17.6438 98.919 18.7425 99.367 19.6598C99.8363 20.5771 100.455 21.2705 101.223 21.7398C102.012 22.1878 102.876 22.4118 103.815 22.4118C104.754 22.4118 105.628 22.1771 106.439 21.7078C107.271 21.2385 107.943 20.5558 108.455 19.6598C108.967 18.7425 109.223 17.6438 109.223 16.3638C109.223 15.0838 108.978 13.9958 108.487 13.0998C107.996 12.1825 107.346 11.4998 106.535 11.0518C105.724 10.5825 104.85 10.3478 103.911 10.3478Z" fill="white"/>
<path d="M139.737 7.27581C141.06 7.27581 142.244 7.56381 143.289 8.13981C144.335 8.71581 145.156 9.56914 145.753 10.6998C146.372 11.8305 146.681 13.1958 146.681 14.7958V25.1958H143.033V15.3398C143.033 13.7611 142.639 12.5558 141.849 11.7238C141.06 10.8705 139.983 10.4438 138.617 10.4438C137.252 10.4438 136.175 10.8705 135.385 11.7238C134.596 12.5558 134.201 13.7611 134.201 15.3398V25.1958H130.585V15.3398C130.585 13.7611 130.191 12.5558 129.401 11.7238C128.612 10.8705 127.535 10.4438 126.169 10.4438C124.804 10.4438 123.716 10.8705 122.905 11.7238C122.116 12.5558 121.721 13.7611 121.721 15.3398V25.1958H118.073V7.56381H121.721V10.3478C122.297 9.34514 123.065 8.58781 124.025 8.07581C125.007 7.54247 126.116 7.27581 127.353 7.27581C128.719 7.27581 129.935 7.59581 131.001 8.23581C132.068 8.87581 132.879 9.80381 133.433 11.0198C134.052 9.84647 134.905 8.92914 135.993 8.26781C137.103 7.60647 138.351 7.27581 139.737 7.27581Z" fill="white"/>
<path d="M162.615 7.27581C164.151 7.27581 165.549 7.65981 166.807 8.42781C168.087 9.17447 169.09 10.2305 169.815 11.5958C170.541 12.9611 170.903 14.5291 170.903 16.2998C170.903 18.0705 170.541 19.6598 169.815 21.0678C169.09 22.4545 168.087 23.5425 166.807 24.3318C165.549 25.0998 164.151 25.4838 162.615 25.4838C161.229 25.4838 160.013 25.1638 158.967 24.5238C157.922 23.8625 157.09 22.9878 156.471 21.8998V25.1958H152.823V1.51581H156.471V10.6998C157.069 9.67581 157.89 8.85447 158.935 8.23581C160.002 7.59581 161.229 7.27581 162.615 7.27581ZM161.815 10.4438C160.898 10.4438 160.023 10.6785 159.191 11.1478C158.381 11.6171 157.719 12.2998 157.207 13.1958C156.717 14.0918 156.471 15.1478 156.471 16.3638C156.471 17.5798 156.717 18.6465 157.207 19.5638C157.719 20.4598 158.381 21.1425 159.191 21.6118C160.023 22.0811 160.898 22.3158 161.815 22.3158C162.754 22.3158 163.629 22.0811 164.439 21.6118C165.271 21.1211 165.933 20.4171 166.423 19.4998C166.935 18.5825 167.191 17.5158 167.191 16.2998C167.191 15.0838 166.935 14.0385 166.423 13.1638C165.933 12.2678 165.271 11.5958 164.439 11.1478C163.629 10.6785 162.754 10.4438 161.815 10.4438Z" fill="white"/>
<path d="M183.819 7.27581C185.504 7.27581 187.029 7.64914 188.395 8.39581C189.76 9.14247 190.837 10.2091 191.627 11.5958C192.416 12.9825 192.811 14.5718 192.811 16.3638C192.811 18.1558 192.405 19.7451 191.595 21.1318C190.784 22.5185 189.675 23.5958 188.267 24.3638C186.88 25.1105 185.344 25.4838 183.659 25.4838C181.995 25.4838 180.491 25.1105 179.147 24.3638C177.803 23.5958 176.747 22.5291 175.979 21.1638C175.211 19.7771 174.827 18.1771 174.827 16.3638C174.827 14.5718 175.221 12.9825 176.011 11.5958C176.8 10.2091 177.877 9.14247 179.243 8.39581C180.608 7.64914 182.133 7.27581 183.819 7.27581ZM183.755 10.3478C182.816 10.3478 181.952 10.5825 181.163 11.0518C180.373 11.4998 179.733 12.1825 179.243 13.0998C178.773 13.9958 178.539 15.0838 178.539 16.3638C178.539 17.6438 178.763 18.7425 179.211 19.6598C179.68 20.5771 180.299 21.2705 181.067 21.7398C181.856 22.1878 182.72 22.4118 183.659 22.4118C184.597 22.4118 185.472 22.1771 186.283 21.7078C187.115 21.2385 187.787 20.5558 188.299 19.6598C188.811 18.7425 189.067 17.6438 189.067 16.3638C189.067 15.0838 188.821 13.9958 188.331 13.0998C187.84 12.1825 187.189 11.4998 186.379 11.0518C185.568 10.5825 184.693 10.3478 183.755 10.3478Z" fill="white"/>
<path d="M69.752 2.95581L63.16 25.1958H59.032L54.36 8.36381L49.4 25.1958L45.304 25.2278L39 2.95581H42.872L47.48 21.0678L52.472 2.95581H56.568L61.208 20.9718L65.848 2.95581H69.752Z" stroke="white" mask="url(#path-7-outside-1_1_432)"/>
<path d="M82.0687 7.27581C83.7541 7.27581 85.2794 7.64914 86.6447 8.39581C88.0101 9.14247 89.0874 10.2091 89.8767 11.5958C90.6661 12.9825 91.0607 14.5718 91.0607 16.3638C91.0607 18.1558 90.6554 19.7451 89.8447 21.1318C89.0341 22.5185 87.9248 23.5958 86.5168 24.3638C85.1301 25.1105 83.5941 25.4838 81.9087 25.4838C80.2447 25.4838 78.7407 25.1105 77.3967 24.3638C76.0527 23.5958 74.9967 22.5291 74.2287 21.1638C73.4607 19.7771 73.0767 18.1771 73.0767 16.3638C73.0767 14.5718 73.4714 12.9825 74.2607 11.5958C75.0501 10.2091 76.1274 9.14247 77.4927 8.39581C78.8581 7.64914 80.3834 7.27581 82.0687 7.27581ZM82.0047 10.3478C81.0661 10.3478 80.2021 10.5825 79.4128 11.0518C78.6234 11.4998 77.9834 12.1825 77.4927 13.0998C77.0234 13.9958 76.7887 15.0838 76.7887 16.3638C76.7887 17.6438 77.0127 18.7425 77.4607 19.6598C77.9301 20.5771 78.5487 21.2705 79.3167 21.7398C80.1061 22.1878 80.9701 22.4118 81.9087 22.4118C82.8474 22.4118 83.7221 22.1771 84.5327 21.7078C85.3647 21.2385 86.0367 20.5558 86.5487 19.6598C87.0607 18.7425 87.3167 17.6438 87.3167 16.3638C87.3167 15.0838 87.0714 13.9958 86.5807 13.0998C86.0901 12.1825 85.4394 11.4998 84.6287 11.0518C83.8181 10.5825 82.9434 10.3478 82.0047 10.3478Z" stroke="white" mask="url(#path-7-outside-1_1_432)"/>
<path d="M103.975 7.27581C105.66 7.27581 107.186 7.64914 108.551 8.39581C109.916 9.14247 110.994 10.2091 111.783 11.5958C112.572 12.9825 112.967 14.5718 112.967 16.3638C112.967 18.1558 112.562 19.7451 111.751 21.1318C110.94 22.5185 109.831 23.5958 108.423 24.3638C107.036 25.1105 105.5 25.4838 103.815 25.4838C102.151 25.4838 100.647 25.1105 99.303 24.3638C97.959 23.5958 96.903 22.5291 96.135 21.1638C95.367 19.7771 94.983 18.1771 94.983 16.3638C94.983 14.5718 95.3777 12.9825 96.167 11.5958C96.9563 10.2091 98.0337 9.14247 99.399 8.39581C100.764 7.64914 102.29 7.27581 103.975 7.27581ZM103.911 10.3478C102.972 10.3478 102.108 10.5825 101.319 11.0518C100.53 11.4998 99.8897 12.1825 99.399 13.0998C98.9297 13.9958 98.695 15.0838 98.695 16.3638C98.695 17.6438 98.919 18.7425 99.367 19.6598C99.8363 20.5771 100.455 21.2705 101.223 21.7398C102.012 22.1878 102.876 22.4118 103.815 22.4118C104.754 22.4118 105.628 22.1771 106.439 21.7078C107.271 21.2385 107.943 20.5558 108.455 19.6598C108.967 18.7425 109.223 17.6438 109.223 16.3638C109.223 15.0838 108.978 13.9958 108.487 13.0998C107.996 12.1825 107.346 11.4998 106.535 11.0518C105.724 10.5825 104.85 10.3478 103.911 10.3478Z" stroke="white" mask="url(#path-7-outside-1_1_432)"/>
<path d="M139.737 7.27581C141.06 7.27581 142.244 7.56381 143.289 8.13981C144.335 8.71581 145.156 9.56914 145.753 10.6998C146.372 11.8305 146.681 13.1958 146.681 14.7958V25.1958H143.033V15.3398C143.033 13.7611 142.639 12.5558 141.849 11.7238C141.06 10.8705 139.983 10.4438 138.617 10.4438C137.252 10.4438 136.175 10.8705 135.385 11.7238C134.596 12.5558 134.201 13.7611 134.201 15.3398V25.1958H130.585V15.3398C130.585 13.7611 130.191 12.5558 129.401 11.7238C128.612 10.8705 127.535 10.4438 126.169 10.4438C124.804 10.4438 123.716 10.8705 122.905 11.7238C122.116 12.5558 121.721 13.7611 121.721 15.3398V25.1958H118.073V7.56381H121.721V10.3478C122.297 9.34514 123.065 8.58781 124.025 8.07581C125.007 7.54247 126.116 7.27581 127.353 7.27581C128.719 7.27581 129.935 7.59581 131.001 8.23581C132.068 8.87581 132.879 9.80381 133.433 11.0198C134.052 9.84647 134.905 8.92914 135.993 8.26781C137.103 7.60647 138.351 7.27581 139.737 7.27581Z" stroke="white" mask="url(#path-7-outside-1_1_432)"/>
<path d="M162.615 7.27581C164.151 7.27581 165.549 7.65981 166.807 8.42781C168.087 9.17447 169.09 10.2305 169.815 11.5958C170.541 12.9611 170.903 14.5291 170.903 16.2998C170.903 18.0705 170.541 19.6598 169.815 21.0678C169.09 22.4545 168.087 23.5425 166.807 24.3318C165.549 25.0998 164.151 25.4838 162.615 25.4838C161.229 25.4838 160.013 25.1638 158.967 24.5238C157.922 23.8625 157.09 22.9878 156.471 21.8998V25.1958H152.823V1.51581H156.471V10.6998C157.069 9.67581 157.89 8.85447 158.935 8.23581C160.002 7.59581 161.229 7.27581 162.615 7.27581ZM161.815 10.4438C160.898 10.4438 160.023 10.6785 159.191 11.1478C158.381 11.6171 157.719 12.2998 157.207 13.1958C156.717 14.0918 156.471 15.1478 156.471 16.3638C156.471 17.5798 156.717 18.6465 157.207 19.5638C157.719 20.4598 158.381 21.1425 159.191 21.6118C160.023 22.0811 160.898 22.3158 161.815 22.3158C162.754 22.3158 163.629 22.0811 164.439 21.6118C165.271 21.1211 165.933 20.4171 166.423 19.4998C166.935 18.5825 167.191 17.5158 167.191 16.2998C167.191 15.0838 166.935 14.0385 166.423 13.1638C165.933 12.2678 165.271 11.5958 164.439 11.1478C163.629 10.6785 162.754 10.4438 161.815 10.4438Z" stroke="white" mask="url(#path-7-outside-1_1_432)"/>
<path d="M183.819 7.27581C185.504 7.27581 187.029 7.64914 188.395 8.39581C189.76 9.14247 190.837 10.2091 191.627 11.5958C192.416 12.9825 192.811 14.5718 192.811 16.3638C192.811 18.1558 192.405 19.7451 191.595 21.1318C190.784 22.5185 189.675 23.5958 188.267 24.3638C186.88 25.1105 185.344 25.4838 183.659 25.4838C181.995 25.4838 180.491 25.1105 179.147 24.3638C177.803 23.5958 176.747 22.5291 175.979 21.1638C175.211 19.7771 174.827 18.1771 174.827 16.3638C174.827 14.5718 175.221 12.9825 176.011 11.5958C176.8 10.2091 177.877 9.14247 179.243 8.39581C180.608 7.64914 182.133 7.27581 183.819 7.27581ZM183.755 10.3478C182.816 10.3478 181.952 10.5825 181.163 11.0518C180.373 11.4998 179.733 12.1825 179.243 13.0998C178.773 13.9958 178.539 15.0838 178.539 16.3638C178.539 17.6438 178.763 18.7425 179.211 19.6598C179.68 20.5771 180.299 21.2705 181.067 21.7398C181.856 22.1878 182.72 22.4118 183.659 22.4118C184.597 22.4118 185.472 22.1771 186.283 21.7078C187.115 21.2385 187.787 20.5558 188.299 19.6598C188.811 18.7425 189.067 17.6438 189.067 16.3638C189.067 15.0838 188.821 13.9958 188.331 13.0998C187.84 12.1825 187.189 11.4998 186.379 11.0518C185.568 10.5825 184.693 10.3478 183.755 10.3478Z" stroke="white" mask="url(#path-7-outside-1_1_432)"/>
</svg>
