<svg width="375" height="626" viewBox="0 0 375 626" fill="none" xmlns="http://www.w3.org/2000/svg">
<g opacity="0.08">
<path d="M30.7741 44.7487L32.8848 43.4359C24.9971 92.054 -22.344 153.714 -88.5654 201.49C-106.509 214.407 -114.226 228.944 -110.907 243.575C-108.451 254.348 -100.256 264.701 -87.0975 273.504C-73.9717 282.255 -57.2379 288.688 -38.6668 292.074C-31.5676 293.37 -23.1456 295.381 -14.1772 297.565C27.4319 307.637 84.3968 321.339 105.257 285.814C116.645 266.356 109.336 247.545 101.595 227.685C93.7415 207.528 85.5998 186.671 99.2773 165.717C103.407 159.415 108.926 153.346 115.835 147.512L117.838 150.732C111.371 156.219 106.261 161.886 102.402 167.801C89.7756 187.15 97.196 206.258 105.049 226.415C112.791 246.275 120.788 266.782 108.455 287.779C92.1686 315.48 56.5746 315.432 21.8948 309.324C-4.54937 306.221 -31.7162 298.661 -50.0446 295.783C-113.098 285.94 -158.992 240.386 -108.622 199.832C-59.0634 159.857 -21.5763 111.062 -5.81291 67.5768L30.7741 44.7487Z" fill="#17FFE5"/>
<path d="M293.249 678.385C287.624 683.127 282.36 689.037 276.791 695.283C267.247 705.977 257.471 716.888 245.177 722.924C235.496 730.336 224.858 735.854 212.374 736.517C197.469 737.295 184.597 724.73 182.398 710.943C175.516 667.712 226.026 633.808 208.865 590.308L208.832 590.255C203.126 571.183 182.342 558.267 164.665 552.35C134.654 542.391 92.8006 544.849 62.3636 558.947C61.1282 559.788 59.8072 560.61 58.5718 561.452C47.4607 568.801 35.1342 576.907 22.1912 583.785C0.98896 596.825 -22.2734 608.438 -45.5448 608.49C-82.2489 608.623 -100.985 562.003 -71.4144 553.934C-70.81 552.313 -70.0344 550.733 -69.0416 549.383C-65.2093 543.998 -56.6802 538.035 -38.0189 540.704C-17.7754 543.561 -2.23873 540.853 10.9132 532.307C22.4798 524.747 32.4368 512.478 43.2251 492.591C52.7676 474.943 59.2338 453.644 66.0001 431.061C76.5247 396.257 87.435 360.189 110.886 337.331C125.265 323.337 144.669 312.001 168.655 303.672C180.404 299.586 193.305 296.174 207.199 293.536L209.3 296.914C195.043 299.559 181.865 302.996 169.872 307.16C146.428 315.299 127.447 326.373 113.477 339.966C90.7203 362.172 79.93 397.726 69.5383 432.155C62.6463 454.89 56.173 476.412 46.4647 494.383C35.3978 514.883 25.0309 527.553 12.9359 535.441C-1.02864 544.566 -17.3636 547.404 -38.5695 544.414C-51.9047 542.532 -61.3412 545.033 -65.9877 551.584C-70.1115 557.443 -69.9563 566.058 -65.4688 574.687C-60.3974 584.491 -48.1423 595.83 -30.3443 595.815C0.0225357 595.743 31.3806 574.995 56.5819 558.37C59.1911 556.674 61.7147 554.958 64.2183 553.328C94.4395 533.58 144.499 527.703 180.538 539.696C198.643 545.713 220.032 559.131 225.908 578.83L225.941 578.882C231.659 598.68 221.227 620.907 211.061 642.384C203.779 657.894 196.889 672.501 195.943 685.827C195 698.567 198.143 709.277 204.713 715.952C210.264 721.578 217.913 724.214 227.509 723.737C247.34 722.75 260.932 707.488 274.074 692.8C279.716 686.436 285.086 680.46 290.889 675.533C307.603 661.404 330.549 649.989 355.447 643.362C378.985 637.141 402.483 635.923 422.487 639.808L425.212 644.189C405.059 639.593 380.756 640.578 356.4 647.015C332.34 653.34 309.342 664.789 293.249 678.385Z" fill="#17FFE5"/>
<path d="M-168.392 233.951C-187.921 266.971 -206.444 298.194 -205.248 320.961C-204.501 334.999 -200.027 344.667 -191.601 350.559C-168.765 366.313 -120.557 350.906 -78.0157 337.339C-45.9515 327.065 -18.2485 318.258 -2.5792 322.136C16.2068 326.785 28.5137 336.563 34.0061 351.164C49.7891 392.911 5.99208 461.46 -7.84469 481.491C-29.7509 513.28 -52.5937 524.484 -89.4548 521.628C-94.069 521.275 -99.1044 520.598 -104.45 519.894C-127.894 516.823 -157.098 513.087 -172.583 532.825C-184.722 548.285 -203.137 554.831 -225.803 551.716C-244.738 549.064 -265.927 539.609 -283.868 525.719C-290.371 520.681 -296.721 515.182 -302.886 509.861C-325.733 490.086 -347.356 471.453 -379.442 470.974C-389.793 470.82 -401.536 471.605 -413.744 473.411L-415.879 469.978C-402.853 467.957 -390.365 467.074 -379.342 467.25C-345.91 467.771 -322.794 487.745 -300.381 507.058C-294.248 512.326 -287.984 517.805 -281.515 522.79C-264.08 536.337 -243.557 545.546 -225.221 548.058C-210.392 550.114 -189.707 548.749 -175.446 530.577C-158.665 509.154 -128.327 513.064 -103.921 516.269C-98.6612 516.953 -93.6586 517.577 -89.0972 517.963C-53.838 520.716 -31.9059 509.932 -10.886 479.428C-3.03496 468.026 11.7049 445.089 22.284 419.466C33.8776 391.235 36.6439 368.714 30.5615 352.574C25.462 339.193 14.0632 330.169 -3.43784 325.819C-18.0791 322.181 -46.673 331.322 -76.87 340.947C-120.249 354.816 -169.381 370.505 -193.684 353.686C-203.058 347.212 -208.15 336.316 -208.967 321.223C-210.213 297.315 -191.452 265.651 -171.579 232.124C-153.857 202.206 -135.731 171.523 -131.566 145.715L-127.447 143.153C-130.704 170.301 -149.724 202.492 -168.392 233.951Z" fill="#17FFE5"/>
<path d="M149.636 691.399C138.692 706.32 126.712 716.57 115.942 720.314C100.607 725.641 86.771 719.899 73.4143 714.288C68.6023 712.319 63.567 710.224 58.623 708.734C45.6933 704.854 33.8211 706.038 21.2234 707.28C8.09651 708.57 -5.43972 709.941 -20.1563 705.053L-20.4396 704.911C-27.1193 701.525 -32.4948 697.852 -36.479 694.047C-56.1069 680.518 -69.7609 659.345 -55.8202 640.798C-38.2357 617.448 7.50449 633.131 32.5892 628.939C66.6558 623.283 83.7694 591.096 116.475 581.712C139.869 574.99 166.369 588.862 170.575 598.663C171.09 599.836 171.513 601.114 171.875 602.375C172.266 603.063 172.598 603.735 172.912 604.466C177.248 614.496 177.211 628.226 172.805 644.236C168.542 659.963 160.081 677.115 149.636 691.399ZM20.9047 703.516C33.306 702.284 46.1001 701.031 59.7494 705.11C64.8733 706.649 69.9687 708.76 74.8841 710.822C88.1973 716.357 100.824 721.573 114.728 716.755C135.265 709.634 160.275 675.943 169.268 643.263C173.442 628.092 173.504 615.208 169.527 605.986C165.278 596.109 152.803 594.095 132.569 599.88C118.563 603.895 105.168 610.143 92.1997 616.25C74.8845 624.322 57.0341 632.698 37.357 635.991C30.1922 637.181 22.6424 637.425 15.3654 637.616C-3.41627 638.124 -21.1725 638.657 -33.2749 654.742C-37.0446 659.768 -39.603 664.612 -40.8075 668.989C-44.2726 681.581 -37.0858 692.267 -18.823 701.614C-4.89639 706.092 8.23053 704.802 20.9047 703.516Z" fill="#17FFE5"/>
<path d="M48.9719 231.791C48.1229 233.488 46.9844 235.073 45.642 236.566C37.1248 245.954 23.0235 250.487 7.03163 249.035C-11.608 247.33 -28.8911 237.914 -36.9189 225.006C-37.7708 223.636 -38.5499 222.148 -39.2106 220.732C-41.9572 214.549 -41.8174 208.179 -38.8112 201.706C-32.7662 188.814 -15.5934 177.914 -2.48298 174.144C5.10753 171.98 14.3452 173.761 23.4983 179.174C31.8229 184.079 39.5588 191.689 44.7687 200.066C51.8918 211.636 53.4608 223.227 48.9719 231.791ZM-1.42757 177.725C-11.9592 180.695 -29.4451 190.621 -35.3972 203.309C-37.9387 208.762 -38.0619 214.1 -35.7467 219.235C-35.1515 220.546 -34.5035 221.823 -33.7171 223.088C-26.2791 235.047 -10.114 243.844 7.39302 245.376C22.1995 246.689 35.1661 242.57 42.9292 234.088C44.0731 232.865 44.9802 231.497 45.7162 230.09C49.5821 222.644 48.0875 212.468 41.5997 202.036C32.2411 187.107 13.1798 173.536 -1.42757 177.725Z" fill="#17FFE5"/>
<path d="M163.691 405.806C164.95 404.385 166.459 403.147 168.141 402.051C178.795 395.179 193.59 394.46 208.667 400.024C226.237 406.521 240.505 420.13 244.929 434.711C245.399 436.258 245.767 437.901 246.04 439.443C247.098 446.142 245.318 452.271 240.742 457.754C231.573 468.661 212.166 474.744 198.525 474.983C190.632 475.104 182.166 470.978 174.72 463.359C167.943 456.446 162.433 447.069 159.562 437.606C155.666 424.555 157.143 412.928 163.691 405.806ZM198.43 471.243C209.373 471.107 228.83 466.048 237.857 455.315C241.721 450.698 243.218 445.564 242.307 439.991C242.07 438.568 241.774 437.163 241.34 435.735C237.241 422.225 223.893 409.507 207.373 403.471C193.406 398.35 179.813 398.965 170.123 405.155C168.702 406.041 167.472 407.129 166.398 408.3C160.74 414.501 159.557 424.739 163.133 436.523C168.321 453.407 183.234 471.499 198.43 471.243Z" fill="#17FFE5"/>
<path d="M110.433 503.652C107.386 503.752 103.183 502.721 100.565 497.315C98.111 492.261 97.1507 483.14 98.5011 477.808C100.435 470.118 110.799 465.202 119.636 464.912C125.934 464.705 130.985 466.777 133.4 470.663C133.882 471.41 134.266 472.262 134.55 473.168C136.078 477.897 134.404 484.206 130.033 490.451C125.514 496.853 117.696 503.414 110.433 503.652ZM131.682 474.075C131.457 473.422 131.183 472.821 130.86 472.272C128.984 469.334 124.967 467.788 119.736 467.959C109.984 468.279 102.688 473.705 101.424 478.576C100.252 483.14 101.191 491.6 103.318 496.005C104.845 499.158 107.184 500.708 110.333 500.605C115.666 500.43 122.725 495.521 127.584 488.65C131.323 483.29 132.873 477.85 131.682 474.075Z" fill="#17FFE5"/>
<path d="M349.546 492.262C342.661 477.079 353.719 449.859 358.796 438.872C361.213 433.71 363.761 428.76 366.472 424.073L368.704 427.661C366.408 431.723 364.19 436.029 362.176 440.428C352.074 462.371 348.563 481.165 352.917 490.75C356.399 498.463 365.187 500.022 379.026 495.367C386.65 492.821 394.272 486.982 401.389 480.214L403.391 483.433C396.116 490.299 388.217 496.163 380.192 498.886C369.276 502.602 355.06 504.418 349.546 492.262Z" fill="#17FFE5"/>
<path d="M250.941 606.175C245.341 597.642 243.631 586.762 245.576 572.804C248.686 550.94 261.071 531.734 272.986 513.186C273.747 512.053 274.455 510.953 275.13 509.801C301.158 469.287 320.854 434.03 332.252 393.677C332.757 391.897 333.355 389.913 333.96 387.705C334.891 384.488 335.975 380.81 337.085 376.822L339.747 381.102C338.969 383.857 338.198 386.388 337.52 388.715C336.882 390.87 336.317 392.907 335.778 394.634C324.228 435.449 304.386 470.943 278.193 511.779C277.485 512.879 276.724 514.012 275.995 515.198C264.246 533.422 252.133 552.24 249.117 573.313C247.306 586.308 248.833 596.422 253.908 604.11C260.494 614.229 268.578 621.217 277.251 624.323C286.676 627.693 296.196 626.388 305.524 620.294C322.078 609.558 332.61 592.677 342.799 576.302C352.967 560.013 363.427 543.25 380.002 531.842C394.034 522.236 408.533 515.856 421.929 513.24L424.032 516.621C410.835 518.967 396.27 525.241 382.132 534.913C366.211 545.841 355.95 562.334 346 578.268C335.613 594.912 324.862 612.15 307.601 623.398C288.028 636.231 266.257 629.622 250.941 606.175Z" fill="#17FFE5"/>
</g>
</svg>
