<svg width="539" height="490" viewBox="0 0 539 490" fill="none" xmlns="http://www.w3.org/2000/svg">
<path d="M75.8399 650.096C69.3796 637.61 60.5626 625.253 51.2473 612.184C35.2998 589.79 19.0452 566.873 13.0811 541.555C3.37671 520.408 -2.34033 498.366 1.89806 475.147C6.98499 447.433 36.3118 429.535 63.2456 431.783C147.699 438.859 189.353 547.027 278.831 535.355L278.945 535.319C317.377 533.539 350.841 501.278 369.757 471.528C401.709 420.983 415.479 343.038 402.304 280.743C401.262 278.092 400.295 275.292 399.253 272.641C390.294 248.896 380.446 222.575 373.18 195.682C357.939 150.82 346.292 102.828 356.425 60.0886C372.31 -7.34414 468.358 -20.4826 470.556 37.4732C473.342 39.3212 475.979 41.4656 478.084 43.903C486.542 53.3922 494.025 71.7661 480.794 104.803C466.514 140.658 464.785 170.411 475.1 198.448C484.254 223.125 502.986 246.994 535.701 275.862C564.747 301.423 602.021 323.001 641.583 345.715C702.511 380.899 765.651 417.367 798.395 470.831C818.433 503.605 831.254 544.39 836.398 592.213C838.929 615.641 839.684 640.876 838.545 667.583L831.258 669.9C832.545 642.524 831.863 616.769 829.292 592.857C824.268 546.114 811.756 506.225 792.293 474.386C760.471 422.493 698.246 386.479 637.968 351.711C598.176 328.697 560.483 307.004 530.902 280.991C497.155 251.333 477.848 226.529 468.307 200.732C457.26 170.94 459.094 139.662 474.048 102.101C483.455 78.4816 482.892 60.0205 472.597 48.5055C463.374 38.2652 447.079 34.6228 428.852 38.9263C408.158 43.7659 381.413 61.0918 373.617 93.7676C360.403 149.54 385.697 216.557 405.932 270.393C407.98 275.956 410.103 281.37 412.073 286.709C435.982 351.183 425.046 445.749 386.613 506.432C367.321 536.922 332.645 570.067 292.959 571.872L292.845 571.909C253.043 573.379 215.762 544.098 179.779 515.648C153.767 495.212 129.282 475.906 104.597 468.096C81.0171 460.556 59.4628 461.444 44.0012 470.46C30.9652 478.084 22.6362 490.922 19.3172 508.753C12.458 545.605 35.2288 577.51 57.1186 608.329C66.6252 621.585 75.5195 634.167 82.2483 647.064C101.513 684.185 112.928 731.506 114.464 780.228C115.834 826.269 107.797 869.957 91.6871 904.903L82.2366 907.908C99.7538 873.011 108.581 827.954 107.164 780.312C105.827 733.266 94.3741 685.833 75.8399 650.096Z" fill="#17FFE5" opacity="0.08"/>
</svg>
