<svg width="194" height="27" viewBox="0 0 194 27" fill="none" xmlns="http://www.w3.org/2000/svg">
<path fill-rule="evenodd" clip-rule="evenodd" d="M23.2059 7.58815C25.3014 7.58815 27 5.88948 27 3.79408C27 1.69867 25.3014 0 23.2059 0C21.1105 0 19.4119 1.69867 19.4119 3.79408C19.4119 5.88948 21.1105 7.58815 23.2059 7.58815Z" fill="url(#paint0_linear_1_174)"/>
<path fill-rule="evenodd" clip-rule="evenodd" d="M23.2057 17.1171C25.3011 17.1171 26.9998 15.4185 26.9998 13.3231C26.9998 11.2278 25.3011 9.52917 23.2057 9.52917C21.1103 9.52917 19.4116 11.2278 19.4116 13.3231C19.4116 15.4185 21.1103 17.1171 23.2057 17.1171Z" fill="url(#paint1_linear_1_174)"/>
<path fill-rule="evenodd" clip-rule="evenodd" d="M23.2057 26.9996C25.3011 26.9996 26.9998 25.301 26.9998 23.2056C26.9998 21.1102 25.3011 19.4115 23.2057 19.4115C21.1103 19.4115 19.4116 21.1102 19.4116 23.2056C19.4116 25.301 21.1103 26.9996 23.2057 26.9996Z" fill="url(#paint2_linear_1_174)"/>
<path fill-rule="evenodd" clip-rule="evenodd" d="M13.3237 17.1172C15.4191 17.1172 17.1177 15.4186 17.1177 13.3233C17.1177 11.2279 15.4191 9.5293 13.3237 9.5293C11.2284 9.5293 9.52979 11.2279 9.52979 13.3233C9.52979 15.4186 11.2284 17.1172 13.3237 17.1172Z" fill="url(#paint3_linear_1_174)"/>
<path fill-rule="evenodd" clip-rule="evenodd" d="M13.3236 26.9996C15.419 26.9996 17.1176 25.301 17.1176 23.2056C17.1176 21.1102 15.419 19.4115 13.3236 19.4115C11.2283 19.4115 9.52966 21.1102 9.52966 23.2056C9.52966 25.301 11.2283 26.9996 13.3236 26.9996Z" fill="url(#paint4_linear_1_174)"/>
<path fill-rule="evenodd" clip-rule="evenodd" d="M3.79395 26.9996C5.88936 26.9996 7.58803 25.301 7.58803 23.2056C7.58803 21.1102 5.88936 19.4115 3.79395 19.4115C1.69854 19.4115 -0.00012207 21.1102 -0.00012207 23.2056C-0.00012207 25.301 1.69854 26.9996 3.79395 26.9996Z" fill="url(#paint5_linear_1_174)"/>
<mask id="path-7-outside-1_1_174" maskUnits="userSpaceOnUse" x="38" y="0.515869" width="156" height="26" fill="black">
<rect fill="white" x="38" y="0.515869" width="156" height="26"/>
<path d="M69.752 2.95587L63.16 25.1959H59.032L54.36 8.36387L49.4 25.1959L45.304 25.2279L39 2.95587H42.872L47.48 21.0679L52.472 2.95587H56.568L61.208 20.9719L65.848 2.95587H69.752Z"/>
<path d="M82.0687 7.27587C83.7541 7.27587 85.2794 7.6492 86.6447 8.39587C88.0101 9.14254 89.0874 10.2092 89.8767 11.5959C90.6661 12.9825 91.0607 14.5719 91.0607 16.3639C91.0607 18.1559 90.6554 19.7452 89.8447 21.1319C89.0341 22.5185 87.9248 23.5959 86.5168 24.3639C85.1301 25.1105 83.5941 25.4839 81.9087 25.4839C80.2447 25.4839 78.7407 25.1105 77.3967 24.3639C76.0527 23.5959 74.9967 22.5292 74.2287 21.1639C73.4607 19.7772 73.0767 18.1772 73.0767 16.3639C73.0767 14.5719 73.4714 12.9825 74.2607 11.5959C75.0501 10.2092 76.1274 9.14254 77.4927 8.39587C78.8581 7.6492 80.3834 7.27587 82.0687 7.27587ZM82.0047 10.3479C81.0661 10.3479 80.2021 10.5825 79.4128 11.0519C78.6234 11.4999 77.9834 12.1825 77.4927 13.0999C77.0234 13.9959 76.7887 15.0839 76.7887 16.3639C76.7887 17.6439 77.0127 18.7425 77.4607 19.6599C77.9301 20.5772 78.5487 21.2705 79.3167 21.7399C80.1061 22.1879 80.9701 22.4119 81.9087 22.4119C82.8474 22.4119 83.7221 22.1772 84.5327 21.7079C85.3647 21.2385 86.0367 20.5559 86.5487 19.6599C87.0607 18.7425 87.3167 17.6439 87.3167 16.3639C87.3167 15.0839 87.0714 13.9959 86.5807 13.0999C86.0901 12.1825 85.4394 11.4999 84.6287 11.0519C83.8181 10.5825 82.9434 10.3479 82.0047 10.3479Z"/>
<path d="M103.975 7.27587C105.66 7.27587 107.186 7.6492 108.551 8.39587C109.916 9.14254 110.994 10.2092 111.783 11.5959C112.572 12.9825 112.967 14.5719 112.967 16.3639C112.967 18.1559 112.562 19.7452 111.751 21.1319C110.94 22.5185 109.831 23.5959 108.423 24.3639C107.036 25.1105 105.5 25.4839 103.815 25.4839C102.151 25.4839 100.647 25.1105 99.303 24.3639C97.959 23.5959 96.903 22.5292 96.135 21.1639C95.367 19.7772 94.983 18.1772 94.983 16.3639C94.983 14.5719 95.3777 12.9825 96.167 11.5959C96.9563 10.2092 98.0337 9.14254 99.399 8.39587C100.764 7.6492 102.29 7.27587 103.975 7.27587ZM103.911 10.3479C102.972 10.3479 102.108 10.5825 101.319 11.0519C100.53 11.4999 99.8897 12.1825 99.399 13.0999C98.9297 13.9959 98.695 15.0839 98.695 16.3639C98.695 17.6439 98.919 18.7425 99.367 19.6599C99.8363 20.5772 100.455 21.2705 101.223 21.7399C102.012 22.1879 102.876 22.4119 103.815 22.4119C104.754 22.4119 105.628 22.1772 106.439 21.7079C107.271 21.2385 107.943 20.5559 108.455 19.6599C108.967 18.7425 109.223 17.6439 109.223 16.3639C109.223 15.0839 108.978 13.9959 108.487 13.0999C107.996 12.1825 107.346 11.4999 106.535 11.0519C105.724 10.5825 104.85 10.3479 103.911 10.3479Z"/>
<path d="M139.737 7.27587C141.06 7.27587 142.244 7.56387 143.289 8.13987C144.335 8.71587 145.156 9.5692 145.753 10.6999C146.372 11.8305 146.681 13.1959 146.681 14.7959V25.1959H143.033V15.3399C143.033 13.7612 142.639 12.5559 141.849 11.7239C141.06 10.8705 139.983 10.4439 138.617 10.4439C137.252 10.4439 136.175 10.8705 135.385 11.7239C134.596 12.5559 134.201 13.7612 134.201 15.3399V25.1959H130.585V15.3399C130.585 13.7612 130.191 12.5559 129.401 11.7239C128.612 10.8705 127.535 10.4439 126.169 10.4439C124.804 10.4439 123.716 10.8705 122.905 11.7239C122.116 12.5559 121.721 13.7612 121.721 15.3399V25.1959H118.073V7.56387H121.721V10.3479C122.297 9.3452 123.065 8.58787 124.025 8.07587C125.007 7.54254 126.116 7.27587 127.353 7.27587C128.719 7.27587 129.935 7.59587 131.001 8.23587C132.068 8.87587 132.879 9.80387 133.433 11.0199C134.052 9.84654 134.905 8.9292 135.993 8.26787C137.103 7.60654 138.351 7.27587 139.737 7.27587Z"/>
<path d="M162.615 7.27587C164.151 7.27587 165.549 7.65987 166.807 8.42787C168.087 9.17454 169.09 10.2305 169.815 11.5959C170.541 12.9612 170.903 14.5292 170.903 16.2999C170.903 18.0705 170.541 19.6599 169.815 21.0679C169.09 22.4545 168.087 23.5425 166.807 24.3319C165.549 25.0999 164.151 25.4839 162.615 25.4839C161.229 25.4839 160.013 25.1639 158.967 24.5239C157.922 23.8625 157.09 22.9879 156.471 21.8999V25.1959H152.823V1.51587H156.471V10.6999C157.069 9.67587 157.89 8.85453 158.935 8.23587C160.002 7.59587 161.229 7.27587 162.615 7.27587ZM161.815 10.4439C160.898 10.4439 160.023 10.6785 159.191 11.1479C158.381 11.6172 157.719 12.2999 157.207 13.1959C156.717 14.0919 156.471 15.1479 156.471 16.3639C156.471 17.5799 156.717 18.6465 157.207 19.5639C157.719 20.4599 158.381 21.1425 159.191 21.6119C160.023 22.0812 160.898 22.3159 161.815 22.3159C162.754 22.3159 163.629 22.0812 164.439 21.6119C165.271 21.1212 165.933 20.4172 166.423 19.4999C166.935 18.5825 167.191 17.5159 167.191 16.2999C167.191 15.0839 166.935 14.0385 166.423 13.1639C165.933 12.2679 165.271 11.5959 164.439 11.1479C163.629 10.6785 162.754 10.4439 161.815 10.4439Z"/>
<path d="M183.819 7.27587C185.504 7.27587 187.029 7.6492 188.395 8.39587C189.76 9.14254 190.837 10.2092 191.627 11.5959C192.416 12.9825 192.811 14.5719 192.811 16.3639C192.811 18.1559 192.405 19.7452 191.595 21.1319C190.784 22.5185 189.675 23.5959 188.267 24.3639C186.88 25.1105 185.344 25.4839 183.659 25.4839C181.995 25.4839 180.491 25.1105 179.147 24.3639C177.803 23.5959 176.747 22.5292 175.979 21.1639C175.211 19.7772 174.827 18.1772 174.827 16.3639C174.827 14.5719 175.221 12.9825 176.011 11.5959C176.8 10.2092 177.877 9.14254 179.243 8.39587C180.608 7.6492 182.133 7.27587 183.819 7.27587ZM183.755 10.3479C182.816 10.3479 181.952 10.5825 181.163 11.0519C180.373 11.4999 179.733 12.1825 179.243 13.0999C178.773 13.9959 178.539 15.0839 178.539 16.3639C178.539 17.6439 178.763 18.7425 179.211 19.6599C179.68 20.5772 180.299 21.2705 181.067 21.7399C181.856 22.1879 182.72 22.4119 183.659 22.4119C184.597 22.4119 185.472 22.1772 186.283 21.7079C187.115 21.2385 187.787 20.5559 188.299 19.6599C188.811 18.7425 189.067 17.6439 189.067 16.3639C189.067 15.0839 188.821 13.9959 188.331 13.0999C187.84 12.1825 187.189 11.4999 186.379 11.0519C185.568 10.5825 184.693 10.3479 183.755 10.3479Z"/>
</mask>
<path d="M69.752 2.95587L63.16 25.1959H59.032L54.36 8.36387L49.4 25.1959L45.304 25.2279L39 2.95587H42.872L47.48 21.0679L52.472 2.95587H56.568L61.208 20.9719L65.848 2.95587H69.752Z" fill="white"/>
<path d="M82.0687 7.27587C83.7541 7.27587 85.2794 7.6492 86.6447 8.39587C88.0101 9.14254 89.0874 10.2092 89.8767 11.5959C90.6661 12.9825 91.0607 14.5719 91.0607 16.3639C91.0607 18.1559 90.6554 19.7452 89.8447 21.1319C89.0341 22.5185 87.9248 23.5959 86.5168 24.3639C85.1301 25.1105 83.5941 25.4839 81.9087 25.4839C80.2447 25.4839 78.7407 25.1105 77.3967 24.3639C76.0527 23.5959 74.9967 22.5292 74.2287 21.1639C73.4607 19.7772 73.0767 18.1772 73.0767 16.3639C73.0767 14.5719 73.4714 12.9825 74.2607 11.5959C75.0501 10.2092 76.1274 9.14254 77.4927 8.39587C78.8581 7.6492 80.3834 7.27587 82.0687 7.27587ZM82.0047 10.3479C81.0661 10.3479 80.2021 10.5825 79.4128 11.0519C78.6234 11.4999 77.9834 12.1825 77.4927 13.0999C77.0234 13.9959 76.7887 15.0839 76.7887 16.3639C76.7887 17.6439 77.0127 18.7425 77.4607 19.6599C77.9301 20.5772 78.5487 21.2705 79.3167 21.7399C80.1061 22.1879 80.9701 22.4119 81.9087 22.4119C82.8474 22.4119 83.7221 22.1772 84.5327 21.7079C85.3647 21.2385 86.0367 20.5559 86.5487 19.6599C87.0607 18.7425 87.3167 17.6439 87.3167 16.3639C87.3167 15.0839 87.0714 13.9959 86.5807 13.0999C86.0901 12.1825 85.4394 11.4999 84.6287 11.0519C83.8181 10.5825 82.9434 10.3479 82.0047 10.3479Z" fill="white"/>
<path d="M103.975 7.27587C105.66 7.27587 107.186 7.6492 108.551 8.39587C109.916 9.14254 110.994 10.2092 111.783 11.5959C112.572 12.9825 112.967 14.5719 112.967 16.3639C112.967 18.1559 112.562 19.7452 111.751 21.1319C110.94 22.5185 109.831 23.5959 108.423 24.3639C107.036 25.1105 105.5 25.4839 103.815 25.4839C102.151 25.4839 100.647 25.1105 99.303 24.3639C97.959 23.5959 96.903 22.5292 96.135 21.1639C95.367 19.7772 94.983 18.1772 94.983 16.3639C94.983 14.5719 95.3777 12.9825 96.167 11.5959C96.9563 10.2092 98.0337 9.14254 99.399 8.39587C100.764 7.6492 102.29 7.27587 103.975 7.27587ZM103.911 10.3479C102.972 10.3479 102.108 10.5825 101.319 11.0519C100.53 11.4999 99.8897 12.1825 99.399 13.0999C98.9297 13.9959 98.695 15.0839 98.695 16.3639C98.695 17.6439 98.919 18.7425 99.367 19.6599C99.8363 20.5772 100.455 21.2705 101.223 21.7399C102.012 22.1879 102.876 22.4119 103.815 22.4119C104.754 22.4119 105.628 22.1772 106.439 21.7079C107.271 21.2385 107.943 20.5559 108.455 19.6599C108.967 18.7425 109.223 17.6439 109.223 16.3639C109.223 15.0839 108.978 13.9959 108.487 13.0999C107.996 12.1825 107.346 11.4999 106.535 11.0519C105.724 10.5825 104.85 10.3479 103.911 10.3479Z" fill="white"/>
<path d="M139.737 7.27587C141.06 7.27587 142.244 7.56387 143.289 8.13987C144.335 8.71587 145.156 9.5692 145.753 10.6999C146.372 11.8305 146.681 13.1959 146.681 14.7959V25.1959H143.033V15.3399C143.033 13.7612 142.639 12.5559 141.849 11.7239C141.06 10.8705 139.983 10.4439 138.617 10.4439C137.252 10.4439 136.175 10.8705 135.385 11.7239C134.596 12.5559 134.201 13.7612 134.201 15.3399V25.1959H130.585V15.3399C130.585 13.7612 130.191 12.5559 129.401 11.7239C128.612 10.8705 127.535 10.4439 126.169 10.4439C124.804 10.4439 123.716 10.8705 122.905 11.7239C122.116 12.5559 121.721 13.7612 121.721 15.3399V25.1959H118.073V7.56387H121.721V10.3479C122.297 9.3452 123.065 8.58787 124.025 8.07587C125.007 7.54254 126.116 7.27587 127.353 7.27587C128.719 7.27587 129.935 7.59587 131.001 8.23587C132.068 8.87587 132.879 9.80387 133.433 11.0199C134.052 9.84654 134.905 8.9292 135.993 8.26787C137.103 7.60654 138.351 7.27587 139.737 7.27587Z" fill="white"/>
<path d="M162.615 7.27587C164.151 7.27587 165.549 7.65987 166.807 8.42787C168.087 9.17454 169.09 10.2305 169.815 11.5959C170.541 12.9612 170.903 14.5292 170.903 16.2999C170.903 18.0705 170.541 19.6599 169.815 21.0679C169.09 22.4545 168.087 23.5425 166.807 24.3319C165.549 25.0999 164.151 25.4839 162.615 25.4839C161.229 25.4839 160.013 25.1639 158.967 24.5239C157.922 23.8625 157.09 22.9879 156.471 21.8999V25.1959H152.823V1.51587H156.471V10.6999C157.069 9.67587 157.89 8.85453 158.935 8.23587C160.002 7.59587 161.229 7.27587 162.615 7.27587ZM161.815 10.4439C160.898 10.4439 160.023 10.6785 159.191 11.1479C158.381 11.6172 157.719 12.2999 157.207 13.1959C156.717 14.0919 156.471 15.1479 156.471 16.3639C156.471 17.5799 156.717 18.6465 157.207 19.5639C157.719 20.4599 158.381 21.1425 159.191 21.6119C160.023 22.0812 160.898 22.3159 161.815 22.3159C162.754 22.3159 163.629 22.0812 164.439 21.6119C165.271 21.1212 165.933 20.4172 166.423 19.4999C166.935 18.5825 167.191 17.5159 167.191 16.2999C167.191 15.0839 166.935 14.0385 166.423 13.1639C165.933 12.2679 165.271 11.5959 164.439 11.1479C163.629 10.6785 162.754 10.4439 161.815 10.4439Z" fill="white"/>
<path d="M183.819 7.27587C185.504 7.27587 187.029 7.6492 188.395 8.39587C189.76 9.14254 190.837 10.2092 191.627 11.5959C192.416 12.9825 192.811 14.5719 192.811 16.3639C192.811 18.1559 192.405 19.7452 191.595 21.1319C190.784 22.5185 189.675 23.5959 188.267 24.3639C186.88 25.1105 185.344 25.4839 183.659 25.4839C181.995 25.4839 180.491 25.1105 179.147 24.3639C177.803 23.5959 176.747 22.5292 175.979 21.1639C175.211 19.7772 174.827 18.1772 174.827 16.3639C174.827 14.5719 175.221 12.9825 176.011 11.5959C176.8 10.2092 177.877 9.14254 179.243 8.39587C180.608 7.6492 182.133 7.27587 183.819 7.27587ZM183.755 10.3479C182.816 10.3479 181.952 10.5825 181.163 11.0519C180.373 11.4999 179.733 12.1825 179.243 13.0999C178.773 13.9959 178.539 15.0839 178.539 16.3639C178.539 17.6439 178.763 18.7425 179.211 19.6599C179.68 20.5772 180.299 21.2705 181.067 21.7399C181.856 22.1879 182.72 22.4119 183.659 22.4119C184.597 22.4119 185.472 22.1772 186.283 21.7079C187.115 21.2385 187.787 20.5559 188.299 19.6599C188.811 18.7425 189.067 17.6439 189.067 16.3639C189.067 15.0839 188.821 13.9959 188.331 13.0999C187.84 12.1825 187.189 11.4999 186.379 11.0519C185.568 10.5825 184.693 10.3479 183.755 10.3479Z" fill="white"/>
<path d="M69.752 2.95587L63.16 25.1959H59.032L54.36 8.36387L49.4 25.1959L45.304 25.2279L39 2.95587H42.872L47.48 21.0679L52.472 2.95587H56.568L61.208 20.9719L65.848 2.95587H69.752Z" stroke="white" mask="url(#path-7-outside-1_1_174)"/>
<path d="M82.0687 7.27587C83.7541 7.27587 85.2794 7.6492 86.6447 8.39587C88.0101 9.14254 89.0874 10.2092 89.8767 11.5959C90.6661 12.9825 91.0607 14.5719 91.0607 16.3639C91.0607 18.1559 90.6554 19.7452 89.8447 21.1319C89.0341 22.5185 87.9248 23.5959 86.5168 24.3639C85.1301 25.1105 83.5941 25.4839 81.9087 25.4839C80.2447 25.4839 78.7407 25.1105 77.3967 24.3639C76.0527 23.5959 74.9967 22.5292 74.2287 21.1639C73.4607 19.7772 73.0767 18.1772 73.0767 16.3639C73.0767 14.5719 73.4714 12.9825 74.2607 11.5959C75.0501 10.2092 76.1274 9.14254 77.4927 8.39587C78.8581 7.6492 80.3834 7.27587 82.0687 7.27587ZM82.0047 10.3479C81.0661 10.3479 80.2021 10.5825 79.4128 11.0519C78.6234 11.4999 77.9834 12.1825 77.4927 13.0999C77.0234 13.9959 76.7887 15.0839 76.7887 16.3639C76.7887 17.6439 77.0127 18.7425 77.4607 19.6599C77.9301 20.5772 78.5487 21.2705 79.3167 21.7399C80.1061 22.1879 80.9701 22.4119 81.9087 22.4119C82.8474 22.4119 83.7221 22.1772 84.5327 21.7079C85.3647 21.2385 86.0367 20.5559 86.5487 19.6599C87.0607 18.7425 87.3167 17.6439 87.3167 16.3639C87.3167 15.0839 87.0714 13.9959 86.5807 13.0999C86.0901 12.1825 85.4394 11.4999 84.6287 11.0519C83.8181 10.5825 82.9434 10.3479 82.0047 10.3479Z" stroke="white" mask="url(#path-7-outside-1_1_174)"/>
<path d="M103.975 7.27587C105.66 7.27587 107.186 7.6492 108.551 8.39587C109.916 9.14254 110.994 10.2092 111.783 11.5959C112.572 12.9825 112.967 14.5719 112.967 16.3639C112.967 18.1559 112.562 19.7452 111.751 21.1319C110.94 22.5185 109.831 23.5959 108.423 24.3639C107.036 25.1105 105.5 25.4839 103.815 25.4839C102.151 25.4839 100.647 25.1105 99.303 24.3639C97.959 23.5959 96.903 22.5292 96.135 21.1639C95.367 19.7772 94.983 18.1772 94.983 16.3639C94.983 14.5719 95.3777 12.9825 96.167 11.5959C96.9563 10.2092 98.0337 9.14254 99.399 8.39587C100.764 7.6492 102.29 7.27587 103.975 7.27587ZM103.911 10.3479C102.972 10.3479 102.108 10.5825 101.319 11.0519C100.53 11.4999 99.8897 12.1825 99.399 13.0999C98.9297 13.9959 98.695 15.0839 98.695 16.3639C98.695 17.6439 98.919 18.7425 99.367 19.6599C99.8363 20.5772 100.455 21.2705 101.223 21.7399C102.012 22.1879 102.876 22.4119 103.815 22.4119C104.754 22.4119 105.628 22.1772 106.439 21.7079C107.271 21.2385 107.943 20.5559 108.455 19.6599C108.967 18.7425 109.223 17.6439 109.223 16.3639C109.223 15.0839 108.978 13.9959 108.487 13.0999C107.996 12.1825 107.346 11.4999 106.535 11.0519C105.724 10.5825 104.85 10.3479 103.911 10.3479Z" stroke="white" mask="url(#path-7-outside-1_1_174)"/>
<path d="M139.737 7.27587C141.06 7.27587 142.244 7.56387 143.289 8.13987C144.335 8.71587 145.156 9.5692 145.753 10.6999C146.372 11.8305 146.681 13.1959 146.681 14.7959V25.1959H143.033V15.3399C143.033 13.7612 142.639 12.5559 141.849 11.7239C141.06 10.8705 139.983 10.4439 138.617 10.4439C137.252 10.4439 136.175 10.8705 135.385 11.7239C134.596 12.5559 134.201 13.7612 134.201 15.3399V25.1959H130.585V15.3399C130.585 13.7612 130.191 12.5559 129.401 11.7239C128.612 10.8705 127.535 10.4439 126.169 10.4439C124.804 10.4439 123.716 10.8705 122.905 11.7239C122.116 12.5559 121.721 13.7612 121.721 15.3399V25.1959H118.073V7.56387H121.721V10.3479C122.297 9.3452 123.065 8.58787 124.025 8.07587C125.007 7.54254 126.116 7.27587 127.353 7.27587C128.719 7.27587 129.935 7.59587 131.001 8.23587C132.068 8.87587 132.879 9.80387 133.433 11.0199C134.052 9.84654 134.905 8.9292 135.993 8.26787C137.103 7.60654 138.351 7.27587 139.737 7.27587Z" stroke="white" mask="url(#path-7-outside-1_1_174)"/>
<path d="M162.615 7.27587C164.151 7.27587 165.549 7.65987 166.807 8.42787C168.087 9.17454 169.09 10.2305 169.815 11.5959C170.541 12.9612 170.903 14.5292 170.903 16.2999C170.903 18.0705 170.541 19.6599 169.815 21.0679C169.09 22.4545 168.087 23.5425 166.807 24.3319C165.549 25.0999 164.151 25.4839 162.615 25.4839C161.229 25.4839 160.013 25.1639 158.967 24.5239C157.922 23.8625 157.09 22.9879 156.471 21.8999V25.1959H152.823V1.51587H156.471V10.6999C157.069 9.67587 157.89 8.85453 158.935 8.23587C160.002 7.59587 161.229 7.27587 162.615 7.27587ZM161.815 10.4439C160.898 10.4439 160.023 10.6785 159.191 11.1479C158.381 11.6172 157.719 12.2999 157.207 13.1959C156.717 14.0919 156.471 15.1479 156.471 16.3639C156.471 17.5799 156.717 18.6465 157.207 19.5639C157.719 20.4599 158.381 21.1425 159.191 21.6119C160.023 22.0812 160.898 22.3159 161.815 22.3159C162.754 22.3159 163.629 22.0812 164.439 21.6119C165.271 21.1212 165.933 20.4172 166.423 19.4999C166.935 18.5825 167.191 17.5159 167.191 16.2999C167.191 15.0839 166.935 14.0385 166.423 13.1639C165.933 12.2679 165.271 11.5959 164.439 11.1479C163.629 10.6785 162.754 10.4439 161.815 10.4439Z" stroke="white" mask="url(#path-7-outside-1_1_174)"/>
<path d="M183.819 7.27587C185.504 7.27587 187.029 7.6492 188.395 8.39587C189.76 9.14254 190.837 10.2092 191.627 11.5959C192.416 12.9825 192.811 14.5719 192.811 16.3639C192.811 18.1559 192.405 19.7452 191.595 21.1319C190.784 22.5185 189.675 23.5959 188.267 24.3639C186.88 25.1105 185.344 25.4839 183.659 25.4839C181.995 25.4839 180.491 25.1105 179.147 24.3639C177.803 23.5959 176.747 22.5292 175.979 21.1639C175.211 19.7772 174.827 18.1772 174.827 16.3639C174.827 14.5719 175.221 12.9825 176.011 11.5959C176.8 10.2092 177.877 9.14254 179.243 8.39587C180.608 7.6492 182.133 7.27587 183.819 7.27587ZM183.755 10.3479C182.816 10.3479 181.952 10.5825 181.163 11.0519C180.373 11.4999 179.733 12.1825 179.243 13.0999C178.773 13.9959 178.539 15.0839 178.539 16.3639C178.539 17.6439 178.763 18.7425 179.211 19.6599C179.68 20.5772 180.299 21.2705 181.067 21.7399C181.856 22.1879 182.72 22.4119 183.659 22.4119C184.597 22.4119 185.472 22.1772 186.283 21.7079C187.115 21.2385 187.787 20.5559 188.299 19.6599C188.811 18.7425 189.067 17.6439 189.067 16.3639C189.067 15.0839 188.821 13.9959 188.331 13.0999C187.84 12.1825 187.189 11.4999 186.379 11.0519C185.568 10.5825 184.693 10.3479 183.755 10.3479Z" stroke="white" mask="url(#path-7-outside-1_1_174)"/>
<defs>
<linearGradient id="paint0_linear_1_174" x1="19.4119" y1="0.613748" x2="28.1889" y2="2.78743" gradientUnits="userSpaceOnUse">
<stop offset="0.197174" stop-color="#9B51E0"/>
<stop offset="1" stop-color="#3081ED" stop-opacity="0.8"/>
</linearGradient>
<linearGradient id="paint1_linear_1_174" x1="19.4116" y1="10.1429" x2="28.1887" y2="12.3166" gradientUnits="userSpaceOnUse">
<stop offset="0.197174" stop-color="#9B51E0"/>
<stop offset="1" stop-color="#3081ED" stop-opacity="0.8"/>
</linearGradient>
<linearGradient id="paint2_linear_1_174" x1="19.4116" y1="20.0252" x2="28.1887" y2="22.1989" gradientUnits="userSpaceOnUse">
<stop offset="0.197174" stop-color="#9B51E0"/>
<stop offset="1" stop-color="#3081ED" stop-opacity="0.8"/>
</linearGradient>
<linearGradient id="paint3_linear_1_174" x1="9.52979" y1="10.143" x2="18.3066" y2="12.3166" gradientUnits="userSpaceOnUse">
<stop offset="0.197174" stop-color="#9B51E0"/>
<stop offset="1" stop-color="#3081ED" stop-opacity="0.8"/>
</linearGradient>
<linearGradient id="paint4_linear_1_174" x1="9.52966" y1="20.0252" x2="18.3065" y2="22.1988" gradientUnits="userSpaceOnUse">
<stop offset="0.197174" stop-color="#9B51E0"/>
<stop offset="1" stop-color="#3081ED" stop-opacity="0.8"/>
</linearGradient>
<linearGradient id="paint5_linear_1_174" x1="-0.000122044" y1="20.0252" x2="8.77695" y2="22.1989" gradientUnits="userSpaceOnUse">
<stop offset="0.197174" stop-color="#9B51E0"/>
<stop offset="1" stop-color="#3081ED" stop-opacity="0.8"/>
</linearGradient>
</defs>
</svg>
